name C:\Users\u0101727\Documents\MyRepositories\upper-imu-dc\Results\main_tracking\Case_47\FLX03_angularVelocities_groundFrame.mot
datacolumns 4
datarows 82
range 0.51000000 1.32000000
endheader 
time	radius_imu_x	radius_imu_y	radius_imu_z	
          0.51000000	         -0.02319911	         -3.00201372	          0.06495473	
          0.52000000	         -0.02296231	         -3.00545980	          0.06591351	
          0.53000000	         -0.02045380	         -3.01193436	          0.06793002	
          0.54000000	         -0.01696215	         -3.02268656	          0.07073546	
          0.55000000	         -0.01296383	         -3.03795622	          0.07439455	
          0.56000000	         -0.00875102	         -3.05739254	          0.07896088	
          0.57000000	         -0.00455649	         -3.08010329	          0.08437651	
          0.58000000	         -0.00059879	         -3.10476857	          0.09046195	
          0.59000000	          0.00291061	         -3.12976974	          0.09695269	
          0.60000000	          0.00577783	         -3.15335929	          0.10355133	
          0.61000000	          0.00784939	         -3.17385403	          0.10997497	
          0.62000000	          0.00902833	         -3.18982880	          0.11599464	
          0.63000000	          0.00927241	         -3.20027340	          0.12147049	
          0.64000000	          0.00856965	         -3.20466220	          0.12639126	
          0.65000000	          0.00691105	         -3.20291525	          0.13088982	
          0.66000000	          0.00427781	         -3.19526801	          0.13520985	
          0.67000000	          0.00064843	         -3.18209988	          0.13963891	
          0.68000000	         -0.00398549	         -3.16379061	          0.14443944	
          0.69000000	         -0.00960889	         -3.14063600	          0.14980400	
          0.70000000	         -0.01618061	         -3.11281490	          0.15583723	
          0.71000000	         -0.02363557	         -3.08039304	          0.16255331	
          0.72000000	         -0.03188453	         -3.04335342	          0.16988506	
          0.73000000	         -0.04081648	         -3.00164900	          0.17770887	
          0.74000000	         -0.05030595	         -2.95527641	          0.18588144	
          0.75000000	         -0.06021344	         -2.90437961	          0.19427689	
          0.76000000	         -0.07037493	         -2.84939182	          0.20281896	
          0.77000000	         -0.08059146	         -2.79117944	          0.21151111	
          0.78000000	         -0.09063239	         -2.73110190	          0.22046239	
          0.79000000	         -0.10026239	         -2.67091401	          0.22989901	
          0.80000000	         -0.10928393	         -2.61252943	          0.24015434	
          0.81000000	         -0.11757081	         -2.55776718	          0.25163783	
          0.82000000	         -0.12507634	         -2.50820777	          0.26479179	
          0.83000000	         -0.13181678	         -2.46517869	          0.28004977	
          0.84000000	         -0.13784349	         -2.42979281	          0.29779737	
          0.85000000	         -0.14321669	         -2.40295373	          0.31833171	
          0.86000000	         -0.14798668	         -2.38529497	          0.34182579	
          0.87000000	         -0.15218957	         -2.37708031	          0.36830730	
          0.88000000	         -0.15585740	         -2.37812490	          0.39765533	
          0.89000000	         -0.15902836	         -2.38779202	          0.42960358	
          0.90000000	         -0.16175064	         -2.40507358	          0.46374342	
          0.91000000	         -0.16408571	         -2.42870405	          0.49954659	
          0.92000000	         -0.16612274	         -2.45724294	          0.53643105	
          0.93000000	         -0.16800079	         -2.48912456	          0.57385474	
          0.94000000	         -0.16990000	         -2.52273097	          0.61136503	
          0.95000000	         -0.17200817	         -2.55654468	          0.64855892	
          0.96000000	         -0.17449709	         -2.58928252	          0.68501983	
          0.97000000	         -0.17752747	         -2.61990429	          0.72032271	
          0.98000000	         -0.18127329	         -2.64747043	          0.75412035	
          0.99000000	         -0.18592235	         -2.67099778	          0.78621941	
          1.00000000	         -0.19162098	         -2.68949016	          0.81654098	
          1.01000000	         -0.19840299	         -2.70216654	          0.84494649	
          1.02000000	         -0.20617029	         -2.70880319	          0.87109201	
          1.03000000	         -0.21472916	         -2.70934382	          0.89470103	
          1.04000000	         -0.22376986	         -2.70353791	          0.91571167	
          1.05000000	         -0.23276639	         -2.69146839	          0.93383581	
          1.06000000	         -0.24091180	         -2.67380254	          0.94834068	
          1.07000000	         -0.24716806	         -2.65139931	          0.95821811	
          1.08000000	         -0.25033840	         -2.62509824	          0.96228721	
          1.09000000	         -0.24922386	         -2.59554148	          0.95907614	
          1.10000000	         -0.24250552	         -2.56404966	          0.94725799	
          1.11000000	         -0.23017886	         -2.52829002	          0.92494661	
          1.12000000	         -0.21199092	         -2.49521908	          0.89616615	
          1.13000000	         -0.21563786	         -2.43593241	          0.86884129	
          1.14000000	         -0.21771205	         -2.41072852	          0.87168024	
          1.15000000	         -0.23712604	         -2.41591643	          0.89429588	
          1.16000000	         -0.25670575	         -2.39202601	          0.89747911	
          1.17000000	         -0.26518364	         -2.37665257	          0.89416365	
          1.18000000	         -0.29093185	         -2.34468868	          0.88604154	
          1.19000000	         -0.30658201	         -2.35425219	          0.90368514	
          1.20000000	         -0.32006225	         -2.38696615	          0.93289995	
          1.21000000	         -0.35069684	         -2.39982623	          0.95099883	
          1.22000000	         -0.36735920	         -2.42915306	          0.97409446	
          1.23000000	         -0.36733235	         -2.45441240	          0.99620313	
          1.24000000	         -0.39375730	         -2.48788510	          1.03115634	
          1.25000000	         -0.41041307	         -2.53594963	          1.08105763	
          1.26000000	         -0.42405881	         -2.58616306	          1.12961709	
          1.27000000	         -0.42964953	         -2.64120542	          1.17538448	
          1.28000000	         -0.42661099	         -2.70004941	          1.21826176	
          1.29000000	         -0.41574482	         -2.76165302	          1.25887551	
          1.30000000	         -0.39855710	         -2.82458257	          1.29783035	
          1.31000000	         -0.37665916	         -2.88773503	          1.33530724	
          1.32000000	         -0.35165040	         -2.94986899	          1.37126168	
